<?xml version="1.0" encoding="UTF-8" standalone="no"?>
<!DOCTYPE svg PUBLIC "-//W3C//DTD SVG 1.1//EN"
 "http://www.w3.org/Graphics/SVG/1.1/DTD/svg11.dtd">
<!-- Generated by graphviz version 13.1.2 (20250808.2320)
 -->
<!-- Title: SystemPipeline Pages: 1 -->
<svg width="1743pt" height="268pt"
 viewBox="0.00 0.00 1743.00 268.00" xmlns="http://www.w3.org/2000/svg" xmlns:xlink="http://www.w3.org/1999/xlink">
<g id="graph0" class="graph" transform="scale(1 1) rotate(0) translate(4 264)">
<title>SystemPipeline</title>
<polygon fill="white" stroke="none" points="-4,4 -4,-264 1739.49,-264 1739.49,4 -4,4"/>
<g id="clust1" class="cluster">
<title>cluster_input</title>
<path fill="none" stroke="black" stroke-dasharray="5,2" d="M20,-30C20,-30 387.81,-30 387.81,-30 393.81,-30 399.81,-36 399.81,-42 399.81,-42 399.81,-95 399.81,-95 399.81,-101 393.81,-107 387.81,-107 387.81,-107 20,-107 20,-107 14,-107 8,-101 8,-95 8,-95 8,-42 8,-42 8,-36 14,-30 20,-30"/>
<text xml:space="preserve" text-anchor="middle" x="30.25" y="-89.7" font-family="Times,serif" font-size="14.00">Input</text>
</g>
<g id="clust2" class="cluster">
<title>cluster_python</title>
<path fill="none" stroke="black" stroke-dasharray="5,2" d="M459.81,-8C459.81,-8 1157.91,-8 1157.91,-8 1163.91,-8 1169.91,-14 1169.91,-20 1169.91,-20 1169.91,-117 1169.91,-117 1169.91,-123 1163.91,-129 1157.91,-129 1157.91,-129 459.81,-129 459.81,-129 453.81,-129 447.81,-123 447.81,-117 447.81,-117 447.81,-20 447.81,-20 447.81,-14 453.81,-8 459.81,-8"/>
<text xml:space="preserve" text-anchor="middle" x="492.56" y="-111.7" font-family="Times,serif" font-size="14.00">Python Layer</text>
</g>
<g id="clust3" class="cluster">
<title>cluster_model</title>
</g>
<g id="clust4" class="cluster">
<title>cluster_exec</title>
</g>
<g id="clust5" class="cluster">
<title>cluster_core</title>
<path fill="#f0f0f0" stroke="black" d="M1229.91,-15C1229.91,-15 1586.72,-15 1586.72,-15 1592.72,-15 1598.72,-21 1598.72,-27 1598.72,-27 1598.72,-240 1598.72,-240 1598.72,-246 1592.72,-252 1586.72,-252 1586.72,-252 1229.91,-252 1229.91,-252 1223.91,-252 1217.91,-246 1217.91,-240 1217.91,-240 1217.91,-27 1217.91,-27 1217.91,-21 1223.91,-15 1229.91,-15"/>
<text xml:space="preserve" text-anchor="middle" x="1287.03" y="-234.7" font-family="Times,serif" font-size="14.00">NetGraph&#45;Core (C++)</text>
</g>
<g id="clust6" class="cluster">
<title>cluster_graph</title>
</g>
<g id="clust8" class="cluster">
<title>cluster_algs</title>
</g>
<g id="clust10" class="cluster">
<title>cluster_results</title>
<path fill="none" stroke="black" stroke-dasharray="5,2" d="M1658.72,-167C1658.72,-167 1715.49,-167 1715.49,-167 1721.49,-167 1727.49,-173 1727.49,-179 1727.49,-179 1727.49,-232 1727.49,-232 1727.49,-238 1721.49,-244 1715.49,-244 1715.49,-244 1658.72,-244 1658.72,-244 1652.72,-244 1646.72,-238 1646.72,-232 1646.72,-232 1646.72,-179 1646.72,-179 1646.72,-173 1652.72,-167 1658.72,-167"/>
<text xml:space="preserve" text-anchor="middle" x="1674.59" y="-226.7" font-family="Times,serif" font-size="14.00">Results</text>
</g>
<!-- yaml -->
<g id="node1" class="node">
<title>yaml</title>
<polygon fill="none" stroke="black" points="93.52,-74 16,-74 16,-38 93.52,-38 93.52,-74"/>
<text xml:space="preserve" text-anchor="middle" x="54.76" y="-52.12" font-family="Times,serif" font-size="10.00">Scenario YAML</text>
</g>
<!-- parse -->
<g id="node2" class="node">
<title>parse</title>
<polygon fill="none" stroke="black" points="243.79,-74 165.52,-74 165.52,-38 243.79,-38 243.79,-74"/>
<text xml:space="preserve" text-anchor="middle" x="204.65" y="-52.12" font-family="Times,serif" font-size="10.00">Parse &amp; Validate</text>
</g>
<!-- yaml&#45;&gt;parse -->
<g id="edge1" class="edge">
<title>yaml&#45;&gt;parse</title>
<path fill="none" stroke="black" d="M93.75,-56C93.75,-56 156.56,-56 156.56,-56"/>
<polygon fill="black" stroke="black" points="156.56,-58.45 163.56,-56 156.56,-53.55 156.56,-58.45"/>
</g>
<!-- expand -->
<g id="node3" class="node">
<title>expand</title>
<polygon fill="none" stroke="black" points="391.81,-74 315.79,-74 315.79,-38 391.81,-38 391.81,-74"/>
<text xml:space="preserve" text-anchor="middle" x="353.8" y="-52.12" font-family="Times,serif" font-size="10.00">DSL Expansion</text>
</g>
<!-- parse&#45;&gt;expand -->
<g id="edge2" class="edge">
<title>parse&#45;&gt;expand</title>
<path fill="none" stroke="black" d="M244.23,-56C244.23,-56 306.82,-56 306.82,-56"/>
<polygon fill="black" stroke="black" points="306.82,-58.45 313.82,-56 306.82,-53.55 306.82,-58.45"/>
</g>
<!-- scenario -->
<g id="node4" class="node">
<title>scenario</title>
<polygon fill="none" stroke="black" points="545.83,-87.72 463.81,-87.72 463.81,-24.27 545.83,-24.27 545.83,-87.72"/>
<text xml:space="preserve" text-anchor="middle" x="504.82" y="-74.62" font-family="Times,serif" font-size="10.00">Scenario</text>
<text xml:space="preserve" text-anchor="middle" x="504.82" y="-63.38" font-family="Times,serif" font-size="10.00">·Network</text>
<text xml:space="preserve" text-anchor="middle" x="504.82" y="-52.12" font-family="Times,serif" font-size="10.00">·FailurePolicySet</text>
<text xml:space="preserve" text-anchor="middle" x="504.82" y="-40.88" font-family="Times,serif" font-size="10.00">·TrafficMatrixSet</text>
<text xml:space="preserve" text-anchor="middle" x="504.82" y="-29.62" font-family="Times,serif" font-size="10.00">·Workflow</text>
</g>
<!-- expand&#45;&gt;scenario -->
<g id="edge12" class="edge">
<title>expand&#45;&gt;scenario</title>
<path fill="none" stroke="black" d="M399.81,-56C409.56,-56 426.83,-56 439.45,-56"/>
<polygon fill="black" stroke="black" points="439.3,-58.45 446.3,-56 439.3,-53.55 439.3,-58.45"/>
</g>
<!-- engine -->
<g id="node5" class="node">
<title>engine</title>
<polygon fill="none" stroke="black" points="686.35,-74 617.83,-74 617.83,-38 686.35,-38 686.35,-74"/>
<text xml:space="preserve" text-anchor="middle" x="652.09" y="-52.12" font-family="Times,serif" font-size="10.00">Scenario.run()</text>
</g>
<!-- scenario&#45;&gt;engine -->
<g id="edge5" class="edge">
<title>scenario&#45;&gt;engine</title>
<path fill="none" stroke="black" d="M546.23,-56C546.23,-56 608.94,-56 608.94,-56"/>
<polygon fill="black" stroke="black" points="608.94,-58.45 615.94,-56 608.94,-53.55 608.94,-58.45"/>
</g>
<!-- steps -->
<g id="node6" class="node">
<title>steps</title>
<polygon fill="none" stroke="black" points="832.12,-74 758.35,-74 758.35,-38 832.12,-38 832.12,-74"/>
<text xml:space="preserve" text-anchor="middle" x="795.23" y="-52.12" font-family="Times,serif" font-size="10.00">WorkflowSteps</text>
</g>
<!-- engine&#45;&gt;steps -->
<g id="edge3" class="edge">
<title>engine&#45;&gt;steps</title>
<path fill="none" stroke="black" d="M686.74,-56C686.74,-56 749.38,-56 749.38,-56"/>
<polygon fill="black" stroke="black" points="749.38,-58.45 756.38,-56 749.38,-53.55 749.38,-58.45"/>
</g>
<!-- exec -->
<g id="node7" class="node">
<title>exec</title>
<polygon fill="none" stroke="black" points="983.89,-82.1 904.12,-82.1 904.12,-29.9 983.89,-29.9 983.89,-82.1"/>
<text xml:space="preserve" text-anchor="middle" x="944" y="-69" font-family="Times,serif" font-size="10.00">Execution</text>
<text xml:space="preserve" text-anchor="middle" x="944" y="-57.75" font-family="Times,serif" font-size="10.00">·FailureManager</text>
<text xml:space="preserve" text-anchor="middle" x="944" y="-46.5" font-family="Times,serif" font-size="10.00">·DemandBuilder</text>
<text xml:space="preserve" text-anchor="middle" x="944" y="-35.25" font-family="Times,serif" font-size="10.00">·Flow Solvers</text>
</g>
<!-- steps&#45;&gt;exec -->
<g id="edge4" class="edge">
<title>steps&#45;&gt;exec</title>
<path fill="none" stroke="black" d="M832.39,-56C832.39,-56 895.16,-56 895.16,-56"/>
<polygon fill="black" stroke="black" points="895.16,-58.45 902.16,-56 895.16,-53.55 895.16,-58.45"/>
</g>
<!-- adapter -->
<g id="node8" class="node">
<title>adapter</title>
<polygon fill="none" stroke="black" points="1161.91,-74 1055.89,-74 1055.89,-38 1161.91,-38 1161.91,-74"/>
<text xml:space="preserve" text-anchor="middle" x="1108.9" y="-57.75" font-family="Times,serif" font-size="10.00">Core Adapter</text>
<text xml:space="preserve" text-anchor="middle" x="1108.9" y="-46.5" font-family="Times,serif" font-size="10.00">(build_graph, mappers)</text>
</g>
<!-- exec&#45;&gt;adapter -->
<g id="edge6" class="edge">
<title>exec&#45;&gt;adapter</title>
<path fill="none" stroke="black" d="M984.34,-56C984.34,-56 1047.07,-56 1047.07,-56"/>
<polygon fill="black" stroke="black" points="1047.07,-58.45 1054.07,-56 1047.07,-53.55 1047.07,-58.45"/>
</g>
<!-- core_backend -->
<g id="node9" class="node">
<title>core_backend</title>
<polygon fill="none" stroke="black" points="1307.17,-74 1253.17,-74 1253.17,-38 1307.17,-38 1307.17,-74"/>
<text xml:space="preserve" text-anchor="middle" x="1280.17" y="-52.12" font-family="Times,serif" font-size="10.00">Backend</text>
</g>
<!-- adapter&#45;&gt;core_backend -->
<g id="edge13" class="edge">
<title>adapter&#45;&gt;core_backend</title>
<path fill="none" stroke="black" d="M1169.91,-56C1179.04,-56 1194.82,-56 1209.51,-56"/>
<polygon fill="black" stroke="black" points="1209.4,-58.45 1216.4,-56 1209.4,-53.55 1209.4,-58.45"/>
<text xml:space="preserve" text-anchor="middle" x="1212.58" y="-47.45" font-family="Times,serif" font-size="9.00">GIL released</text>
</g>
<!-- core_algs -->
<g id="node11" class="node">
<title>core_algs</title>
<polygon fill="none" stroke="black" points="1456.45,-139 1398.43,-139 1398.43,-103 1456.45,-103 1456.45,-139"/>
<text xml:space="preserve" text-anchor="middle" x="1427.44" y="-117.12" font-family="Times,serif" font-size="10.00">Algorithms</text>
</g>
<!-- core_backend&#45;&gt;core_algs -->
<g id="edge10" class="edge">
<title>core_backend&#45;&gt;core_algs</title>
<path fill="none" stroke="black" d="M1280.49,-74.23C1280.49,-88.7 1280.49,-106.5 1280.49,-106.5 1280.49,-106.5 1389.54,-106.5 1389.54,-106.5"/>
<polygon fill="black" stroke="black" points="1389.54,-108.95 1396.54,-106.5 1389.54,-104.05 1389.54,-108.95"/>
</g>
<!-- core_graph -->
<g id="node10" class="node">
<title>core_graph</title>
<polygon fill="none" stroke="black" points="1326.43,-146 1233.91,-146 1233.91,-110 1326.43,-110 1326.43,-146"/>
<text xml:space="preserve" text-anchor="middle" x="1280.17" y="-124.12" font-family="Times,serif" font-size="10.00">StrictMultiDiGraph</text>
</g>
<!-- core_graph&#45;&gt;core_algs -->
<!-- core_spf -->
<g id="node12" class="node">
<title>core_spf</title>
<polygon fill="none" stroke="black" points="1582.58,-67 1528.58,-67 1528.58,-31 1582.58,-31 1582.58,-67"/>
<text xml:space="preserve" text-anchor="middle" x="1555.58" y="-45.12" font-family="Times,serif" font-size="10.00">SPF</text>
</g>
<!-- core_algs&#45;&gt;core_spf -->
<g id="edge7" class="edge">
<title>core_algs&#45;&gt;core_spf</title>
<path fill="none" stroke="black" d="M1427.49,-102.64C1427.49,-82.35 1427.49,-52.5 1427.49,-52.5 1427.49,-52.5 1519.59,-52.5 1519.59,-52.5"/>
<polygon fill="black" stroke="black" points="1519.59,-54.95 1526.59,-52.5 1519.59,-50.05 1519.59,-54.95"/>
</g>
<!-- core_ksp -->
<g id="node13" class="node">
<title>core_ksp</title>
<polygon fill="none" stroke="black" points="1582.58,-139 1528.58,-139 1528.58,-103 1582.58,-103 1582.58,-139"/>
<text xml:space="preserve" text-anchor="middle" x="1555.58" y="-117.12" font-family="Times,serif" font-size="10.00">K&#45;SP</text>
</g>
<!-- core_algs&#45;&gt;core_ksp -->
<g id="edge8" class="edge">
<title>core_algs&#45;&gt;core_ksp</title>
<path fill="none" stroke="black" d="M1456.84,-121C1456.84,-121 1520,-121 1520,-121"/>
<polygon fill="black" stroke="black" points="1520,-123.45 1527,-121 1520,-118.55 1520,-123.45"/>
</g>
<!-- core_maxf -->
<g id="node14" class="node">
<title>core_maxf</title>
<polygon fill="none" stroke="black" points="1582.72,-211 1528.45,-211 1528.45,-175 1582.72,-175 1582.72,-211"/>
<text xml:space="preserve" text-anchor="middle" x="1555.58" y="-189.12" font-family="Times,serif" font-size="10.00">Max&#45;Flow</text>
</g>
<!-- core_algs&#45;&gt;core_maxf -->
<g id="edge9" class="edge">
<title>core_algs&#45;&gt;core_maxf</title>
<path fill="none" stroke="black" d="M1427.49,-139.17C1427.49,-160.5 1427.49,-193 1427.49,-193 1427.49,-193 1519.59,-193 1519.59,-193"/>
<polygon fill="black" stroke="black" points="1519.59,-195.45 1526.59,-193 1519.59,-190.55 1519.59,-195.45"/>
</g>
<!-- results -->
<g id="node15" class="node">
<title>results</title>
<polygon fill="none" stroke="black" points="1719.49,-211 1654.72,-211 1654.72,-175 1719.49,-175 1719.49,-211"/>
<text xml:space="preserve" text-anchor="middle" x="1687.1" y="-189.12" font-family="Times,serif" font-size="10.00">Results Store</text>
</g>
<!-- core_maxf&#45;&gt;results -->
<g id="edge14" class="edge">
<title>core_maxf&#45;&gt;results</title>
<path fill="none" stroke="black" d="M1598.72,-193C1617.31,-193 1645.95,-193 1645.95,-193"/>
<polygon fill="black" stroke="black" points="1638.21,-195.45 1645.21,-193 1638.21,-190.55 1638.21,-195.45"/>
</g>
</g>
</svg>
