<?xml version="1.0" encoding="UTF-8" standalone="no"?>
<!DOCTYPE svg PUBLIC "-//W3C//DTD SVG 1.1//EN"
 "http://www.w3.org/Graphics/SVG/1.1/DTD/svg11.dtd">
<!-- Generated by graphviz version 13.1.2 (20250808.2320)
 -->
<!-- Title: SystemPipeline Pages: 1 -->
<svg width="388pt" height="790pt"
 viewBox="0.00 0.00 388.00 790.00" xmlns="http://www.w3.org/2000/svg" xmlns:xlink="http://www.w3.org/1999/xlink">
<g id="graph0" class="graph" transform="scale(1 1) rotate(0) translate(2.88 786.74)">
<title>SystemPipeline</title>
<polygon fill="white" stroke="none" points="-2.88,2.88 -2.88,-786.74 384.88,-786.74 384.88,2.88 -2.88,2.88"/>
<g id="clust1" class="cluster">
<title>cluster_input</title>
<path fill="none" stroke="black" stroke-dasharray="5,2" d="M20,-627.36C20,-627.36 112,-627.36 112,-627.36 118,-627.36 124,-633.36 124,-639.36 124,-639.36 124,-763.86 124,-763.86 124,-769.86 118,-775.86 112,-775.86 112,-775.86 20,-775.86 20,-775.86 14,-775.86 8,-769.86 8,-763.86 8,-763.86 8,-639.36 8,-639.36 8,-633.36 14,-627.36 20,-627.36"/>
<text xml:space="preserve" text-anchor="middle" x="30.25" y="-758.56" font-family="Times,serif" font-size="14.00">Input</text>
</g>
<g id="clust3" class="cluster">
<title>cluster_model</title>
<path fill="none" stroke="black" stroke-dasharray="5,2" d="M56,-261C56,-261 124,-261 124,-261 130,-261 136,-267 136,-273 136,-273 136,-578.36 136,-578.36 136,-584.36 130,-590.36 124,-590.36 124,-590.36 56,-590.36 56,-590.36 50,-590.36 44,-584.36 44,-578.36 44,-578.36 44,-273 44,-273 44,-267 50,-261 56,-261"/>
<text xml:space="preserve" text-anchor="middle" x="70" y="-573.06" font-family="Times,serif" font-size="14.00">Model</text>
</g>
<g id="clust4" class="cluster">
<title>cluster_orchestration</title>
<path fill="none" stroke="black" stroke-dasharray="5,2" d="M156,-117C156,-117 232,-117 232,-117 238,-117 244,-123 244,-129 244,-129 244,-379.86 244,-379.86 244,-385.86 238,-391.86 232,-391.86 232,-391.86 156,-391.86 156,-391.86 150,-391.86 144,-385.86 144,-379.86 144,-379.86 144,-129 144,-129 144,-123 150,-117 156,-117"/>
<text xml:space="preserve" text-anchor="middle" x="188.75" y="-374.56" font-family="Times,serif" font-size="14.00">Orchestration</text>
</g>
<g id="clust5" class="cluster">
<title>cluster_results</title>
<path fill="none" stroke="black" stroke-dasharray="5,2" d="M264,-8C264,-8 362,-8 362,-8 368,-8 374,-14 374,-20 374,-20 374,-163.86 374,-163.86 374,-169.86 368,-175.86 362,-175.86 362,-175.86 264,-175.86 264,-175.86 258,-175.86 252,-169.86 252,-163.86 252,-163.86 252,-20 252,-20 252,-14 258,-8 264,-8"/>
<text xml:space="preserve" text-anchor="middle" x="279.88" y="-158.56" font-family="Times,serif" font-size="14.00">Results</text>
</g>
<!-- a -->
<g id="node1" class="node">
<title>a</title>
<polygon fill="none" stroke="black" points="90.32,-743.36 15.68,-743.36 15.68,-707.36 90.32,-707.36 90.32,-743.36"/>
<text xml:space="preserve" text-anchor="middle" x="53" y="-721.49" font-family="Times,serif" font-size="10.00">Scenario YAML</text>
</g>
<!-- b -->
<g id="node2" class="node">
<title>b</title>
<polygon fill="none" stroke="black" points="89.94,-671.36 16.05,-671.36 16.05,-635.36 89.94,-635.36 89.94,-671.36"/>
<text xml:space="preserve" text-anchor="middle" x="53" y="-655.11" font-family="Times,serif" font-size="10.00">Parse + Validate</text>
<text xml:space="preserve" text-anchor="middle" x="53" y="-643.86" font-family="Times,serif" font-size="10.00">(JSON Schema)</text>
</g>
<!-- a&#45;&gt;b -->
<g id="edge1" class="edge">
<title>a&#45;&gt;b</title>
<path fill="none" stroke="black" d="M53,-707.19C53,-707.19 53,-679.79 53,-679.79"/>
<polygon fill="black" stroke="black" points="55.28,-679.79 53,-673.29 50.73,-679.79 55.28,-679.79"/>
</g>
<!-- c -->
<g id="node4" class="node">
<title>c</title>
<polygon fill="none" stroke="black" points="111,-521 57,-521 57,-485 111,-485 111,-521"/>
<text xml:space="preserve" text-anchor="middle" x="84" y="-499.12" font-family="Times,serif" font-size="10.00">Network</text>
</g>
<!-- b&#45;&gt;c -->
<g id="edge9" class="edge">
<title>b&#45;&gt;c</title>
<path fill="none" stroke="black" d="M73.47,-627.36C73.47,-620.62 73.47,-610 73.47,-598.2"/>
<polygon fill="black" stroke="black" points="75.75,-598.37 73.47,-591.87 71.2,-598.37 75.75,-598.37"/>
</g>
<!-- ia -->
<!-- ma -->
<!-- ia&#45;&gt;ma -->
<!-- wf -->
<g id="node7" class="node">
<title>wf</title>
<polygon fill="none" stroke="black" points="126.57,-449 53.43,-449 53.43,-413 126.57,-413 126.57,-449"/>
<text xml:space="preserve" text-anchor="middle" x="90" y="-427.12" font-family="Times,serif" font-size="10.00">Workflow Steps</text>
</g>
<!-- c&#45;&gt;wf -->
<!-- fp -->
<g id="node5" class="node">
<title>fp</title>
<polygon fill="none" stroke="black" points="128.07,-377 51.93,-377 51.93,-341 128.07,-341 128.07,-377"/>
<text xml:space="preserve" text-anchor="middle" x="90" y="-355.12" font-family="Times,serif" font-size="10.00">FailurePolicySet</text>
</g>
<!-- tm -->
<g id="node6" class="node">
<title>tm</title>
<polygon fill="none" stroke="black" points="128.07,-305 51.93,-305 51.93,-269 128.07,-269 128.07,-305"/>
<text xml:space="preserve" text-anchor="middle" x="90" y="-283.12" font-family="Times,serif" font-size="10.00">TrafficMatrixSet</text>
</g>
<!-- fp&#45;&gt;tm -->
<!-- wf&#45;&gt;fp -->
<!-- fm -->
<g id="node9" class="node">
<title>fm</title>
<polygon fill="none" stroke="black" points="231.69,-233 156.31,-233 156.31,-197 231.69,-197 231.69,-233"/>
<text xml:space="preserve" text-anchor="middle" x="194" y="-211.12" font-family="Times,serif" font-size="10.00">Failure Manager</text>
</g>
<!-- wf&#45;&gt;fm -->
<g id="edge10" class="edge">
<title>wf&#45;&gt;fm</title>
<path fill="none" stroke="black" d="M136,-431C162.52,-431 190.65,-431 190.65,-431 190.65,-431 190.65,-418.37 190.65,-399.63"/>
<polygon fill="black" stroke="black" points="192.93,-399.87 190.65,-393.37 188.38,-399.87 192.93,-399.87"/>
</g>
<!-- oa -->
<!-- ma&#45;&gt;oa -->
<!-- af -->
<g id="node10" class="node">
<title>af</title>
<polygon fill="none" stroke="black" points="235.82,-161 152.18,-161 152.18,-125 235.82,-125 235.82,-161"/>
<text xml:space="preserve" text-anchor="middle" x="194" y="-144.75" font-family="Times,serif" font-size="10.00">Analysis Function</text>
<text xml:space="preserve" text-anchor="middle" x="194" y="-133.5" font-family="Times,serif" font-size="10.00">(TrafficManager)</text>
</g>
<!-- fm&#45;&gt;af -->
<g id="edge5" class="edge">
<title>fm&#45;&gt;af</title>
<path fill="none" stroke="black" d="M194,-196.83C194,-196.83 194,-169.43 194,-169.43"/>
<polygon fill="black" stroke="black" points="196.28,-169.43 194,-162.93 191.73,-169.43 196.28,-169.43"/>
</g>
<!-- i -->
<g id="node12" class="node">
<title>i</title>
<polygon fill="none" stroke="black" points="366.44,-52 259.56,-52 259.56,-16 366.44,-16 366.44,-52"/>
<text xml:space="preserve" text-anchor="middle" x="313" y="-30.12" font-family="Times,serif" font-size="10.00">Results Store + Artifacts</text>
</g>
<!-- fm&#45;&gt;i -->
<g id="edge11" class="edge">
<title>fm&#45;&gt;i</title>
<path fill="none" stroke="black" d="M244,-215C265.28,-215 285.28,-215 285.28,-215 285.28,-215 285.28,-201.98 285.28,-183.49"/>
<polygon fill="black" stroke="black" points="287.55,-183.87 285.28,-177.37 283,-183.87 287.55,-183.87"/>
</g>
<!-- ra -->
<!-- oa&#45;&gt;ra -->
</g>
</svg>
